<svg width="17" height="18" viewBox="0 0 17 18" fill="none" xmlns="http://www.w3.org/2000/svg">
<g style="mix-blend-mode:multiply">
<g style="mix-blend-mode:multiply">
<g style="mix-blend-mode:multiply">
<g style="mix-blend-mode:multiply">
<g style="mix-blend-mode:multiply">
<path d="M16.217 6.27299C16.217 5.07952 15.7429 3.93493 14.899 3.09101C14.0551 2.2471 12.9105 1.77299 11.717 1.77299H4.87402C3.68055 1.77299 2.53596 2.2471 1.69204 3.09101C0.84813 3.93493 0.374023 5.07952 0.374023 6.27299V12.464C0.374023 13.6575 0.84813 14.8021 1.69204 15.646C2.53596 16.4899 3.68055 16.964 4.87402 16.964H11.717C12.9105 16.964 14.0551 16.4899 14.899 15.646C15.7429 14.8021 16.217 13.6575 16.217 12.464V6.27299Z" stroke="#FFBEE4" stroke-width="0.75"/>
</g>
</g>
</g>
</g>
</g>
<path d="M4.44305 0.373993V1.92699" stroke="#FFBEE4" stroke-width="0.75" stroke-linecap="round"/>
<path d="M12.255 0.373993V1.92699" stroke="#FFBEE4" stroke-width="0.75" stroke-linecap="round"/>
<path d="M4.407 7.12599C4.59002 7.12612 4.77126 7.09019 4.94039 7.02024C5.10951 6.95029 5.26319 6.84771 5.39265 6.71834C5.5221 6.58898 5.6248 6.43537 5.69487 6.2663C5.76494 6.09723 5.801 5.916 5.801 5.73299C5.801 5.36328 5.65413 5.00871 5.39271 4.74728C5.13128 4.48586 4.77671 4.33899 4.407 4.33899C4.03729 4.33899 3.68272 4.48586 3.42129 4.74728C3.15987 5.00871 3.013 5.36328 3.013 5.73299C3.013 5.916 3.04906 6.09723 3.11913 6.2663C3.1892 6.43537 3.2919 6.58898 3.42135 6.71834C3.55081 6.84771 3.70449 6.95029 3.87362 7.02024C4.04274 7.09019 4.22399 7.12612 4.407 7.12599" fill="#FFBEE4"/>
<path d="M8.29604 7.12599C8.47905 7.12612 8.6603 7.09019 8.82942 7.02024C8.99855 6.95029 9.15223 6.84771 9.28168 6.71834C9.41114 6.58898 9.51384 6.43537 9.58391 6.2663C9.65397 6.09723 9.69004 5.916 9.69004 5.73299C9.69004 5.36328 9.54317 5.00871 9.28175 4.74728C9.02032 4.48586 8.66575 4.33899 8.29604 4.33899C7.92633 4.33899 7.57176 4.48586 7.31033 4.74728C7.04891 5.00871 6.90204 5.36328 6.90204 5.73299C6.90204 5.916 6.9381 6.09723 7.00817 6.2663C7.07824 6.43537 7.18093 6.58898 7.31039 6.71834C7.43985 6.84771 7.59353 6.95029 7.76265 7.02024C7.93178 7.09019 8.11302 7.12612 8.29604 7.12599" fill="#FFBEE4"/>
<path d="M12.1861 7.12599C12.3691 7.12612 12.5503 7.09019 12.7194 7.02024C12.8886 6.95029 13.0422 6.84771 13.1717 6.71834C13.3012 6.58898 13.4039 6.43537 13.4739 6.2663C13.544 6.09723 13.5801 5.916 13.5801 5.73299C13.5801 5.36328 13.4332 5.00871 13.1718 4.74728C12.9103 4.48586 12.5558 4.33899 12.1861 4.33899C11.8163 4.33899 11.4618 4.48586 11.2003 4.74728C10.9389 5.00871 10.7921 5.36328 10.7921 5.73299C10.7921 5.916 10.8281 6.09723 10.8982 6.2663C10.9683 6.43537 11.0709 6.58898 11.2004 6.71834C11.3299 6.84771 11.4835 6.95029 11.6527 7.02024C11.8218 7.09019 12.003 7.12612 12.1861 7.12599" fill="#FFBEE4"/>
<path d="M4.407 10.753C4.59002 10.7531 4.77126 10.7172 4.94039 10.6472C5.10951 10.5773 5.26319 10.4747 5.39265 10.3453C5.5221 10.216 5.6248 10.0624 5.69487 9.8933C5.76494 9.72423 5.801 9.543 5.801 9.35999C5.801 8.99028 5.65413 8.63571 5.39271 8.37428C5.13128 8.11286 4.77671 7.96599 4.407 7.96599C4.03729 7.96599 3.68272 8.11286 3.42129 8.37428C3.15987 8.63571 3.013 8.99028 3.013 9.35999C3.013 9.543 3.04906 9.72423 3.11913 9.8933C3.1892 10.0624 3.2919 10.216 3.42135 10.3453C3.55081 10.4747 3.70449 10.5773 3.87362 10.6472C4.04274 10.7172 4.22399 10.7531 4.407 10.753" fill="#FFBEE4"/>
<path d="M8.29604 10.753C8.47905 10.7531 8.6603 10.7172 8.82942 10.6472C8.99855 10.5773 9.15223 10.4747 9.28168 10.3453C9.41114 10.216 9.51384 10.0624 9.58391 9.8933C9.65397 9.72423 9.69004 9.543 9.69004 9.35999C9.69004 8.99028 9.54317 8.63571 9.28175 8.37428C9.02032 8.11286 8.66575 7.96599 8.29604 7.96599C7.92633 7.96599 7.57176 8.11286 7.31033 8.37428C7.04891 8.63571 6.90204 8.99028 6.90204 9.35999C6.90204 9.543 6.9381 9.72423 7.00817 9.8933C7.07824 10.0624 7.18093 10.216 7.31039 10.3453C7.43985 10.4747 7.59353 10.5773 7.76265 10.6472C7.93178 10.7172 8.11302 10.7531 8.29604 10.753" fill="#FFBEE4"/>
<path d="M12.1861 10.753C12.3691 10.7531 12.5503 10.7172 12.7194 10.6472C12.8886 10.5773 13.0422 10.4747 13.1717 10.3453C13.3012 10.216 13.4039 10.0624 13.4739 9.8933C13.544 9.72423 13.5801 9.543 13.5801 9.35999C13.5801 8.99028 13.4332 8.63571 13.1718 8.37428C12.9103 8.11286 12.5558 7.96599 12.1861 7.96599C11.8163 7.96599 11.4618 8.11286 11.2003 8.37428C10.9389 8.63571 10.7921 8.99028 10.7921 9.35999C10.7921 9.543 10.8281 9.72423 10.8982 9.8933C10.9683 10.0624 11.0709 10.216 11.2004 10.3453C11.3299 10.4747 11.4835 10.5773 11.6527 10.6472C11.8218 10.7172 12.003 10.7531 12.1861 10.753" fill="#FFBEE4"/>
<path d="M4.407 14.38C4.59002 14.3801 4.77126 14.3442 4.94039 14.2742C5.10951 14.2043 5.26319 14.1017 5.39265 13.9723C5.5221 13.843 5.6248 13.6894 5.69487 13.5203C5.76494 13.3512 5.801 13.17 5.801 12.987C5.801 12.6173 5.65413 12.2627 5.39271 12.0013C5.13128 11.7399 4.77671 11.593 4.407 11.593C4.03729 11.593 3.68272 11.7399 3.42129 12.0013C3.15987 12.2627 3.013 12.6173 3.013 12.987C3.013 13.17 3.04906 13.3512 3.11913 13.5203C3.1892 13.6894 3.2919 13.843 3.42135 13.9723C3.55081 14.1017 3.70449 14.2043 3.87362 14.2742C4.04274 14.3442 4.22399 14.3801 4.407 14.38" fill="#FFBEE4"/>
<path d="M8.29604 14.38C8.47905 14.3801 8.6603 14.3442 8.82942 14.2742C8.99855 14.2043 9.15223 14.1017 9.28168 13.9723C9.41114 13.843 9.51384 13.6894 9.58391 13.5203C9.65397 13.3512 9.69004 13.17 9.69004 12.987C9.69004 12.6173 9.54317 12.2627 9.28175 12.0013C9.02032 11.7399 8.66575 11.593 8.29604 11.593C7.92633 11.593 7.57176 11.7399 7.31033 12.0013C7.04891 12.2627 6.90204 12.6173 6.90204 12.987C6.90204 13.17 6.9381 13.3512 7.00817 13.5203C7.07824 13.6894 7.18093 13.843 7.31039 13.9723C7.43985 14.1017 7.59353 14.2043 7.76265 14.2742C7.93178 14.3442 8.11302 14.3801 8.29604 14.38" fill="#FFBEE4"/>
<path d="M12.1861 14.38C12.3691 14.3801 12.5503 14.3442 12.7194 14.2742C12.8886 14.2043 13.0422 14.1017 13.1717 13.9723C13.3012 13.843 13.4039 13.6894 13.4739 13.5203C13.544 13.3512 13.5801 13.17 13.5801 12.987C13.5801 12.6173 13.4332 12.2627 13.1718 12.0013C12.9103 11.7399 12.5558 11.593 12.1861 11.593C11.8163 11.593 11.4618 11.7399 11.2003 12.0013C10.9389 12.2627 10.7921 12.6173 10.7921 12.987C10.7921 13.17 10.8281 13.3512 10.8982 13.5203C10.9683 13.6894 11.0709 13.843 11.2004 13.9723C11.3299 14.1017 11.4835 14.2043 11.6527 14.2742C11.8218 14.3442 12.003 14.3801 12.1861 14.38" fill="#FFBEE4"/>
</svg>
