<svg width="13" height="13" viewBox="0 0 13 13" fill="none" xmlns="http://www.w3.org/2000/svg">
<path d="M12.3817 5.2213C12.0875 4.98957 11.8577 4.68619 11.7143 4.34021C11.5709 3.99423 11.5187 3.61723 11.5627 3.2453C11.5908 3.00102 11.5634 2.75356 11.4824 2.52136C11.4015 2.28917 11.2692 2.07824 11.0954 1.90432C10.9216 1.73041 10.7107 1.59799 10.4786 1.51695C10.2464 1.43591 9.99899 1.40834 9.75469 1.4363C9.38286 1.48043 9.00592 1.4284 8.65994 1.28517C8.31397 1.14195 8.01054 0.912338 7.77869 0.618302C7.62589 0.425509 7.43148 0.269754 7.21 0.162684C6.98852 0.0556142 6.7457 0 6.49969 0C6.25369 0 6.01087 0.0556142 5.78939 0.162684C5.56791 0.269754 5.3735 0.425509 5.22069 0.618302C4.98896 0.91252 4.68558 1.14233 4.3396 1.28573C3.99362 1.42913 3.61662 1.48132 3.24469 1.4373C3.00042 1.40921 2.75295 1.43664 2.52075 1.51755C2.28856 1.59846 2.07763 1.73076 1.90371 1.90458C1.7298 2.0784 1.59738 2.28926 1.51634 2.52141C1.4353 2.75356 1.40773 3.00101 1.43569 3.2453C1.47982 3.61714 1.42779 3.99408 1.28457 4.34005C1.14134 4.68603 0.911729 4.98946 0.617693 5.2213C0.425066 5.37422 0.269467 5.56866 0.162509 5.79013C0.0555521 6.0116 0 6.25436 0 6.5003C0 6.74624 0.0555521 6.98901 0.162509 7.21048C0.269467 7.43194 0.425066 7.62639 0.617693 7.7793C0.91191 8.01104 1.14172 8.31442 1.28512 8.6604C1.42852 9.00638 1.48071 9.38338 1.43669 9.7553C1.40857 9.99967 1.43601 10.2472 1.51698 10.4795C1.59795 10.7118 1.73034 10.9228 1.90428 11.0967C2.07822 11.2707 2.2892 11.403 2.52148 11.484C2.75375 11.565 3.00132 11.5924 3.24569 11.5643C3.61753 11.5202 3.99447 11.5722 4.34044 11.7154C4.68642 11.8587 4.98985 12.0883 5.22169 12.3823C5.3745 12.5751 5.56891 12.7309 5.79039 12.8379C6.01187 12.945 6.25469 13.0006 6.50069 13.0006C6.7467 13.0006 6.98952 12.945 7.211 12.8379C7.43248 12.7309 7.62689 12.5751 7.77969 12.3823C8.01143 12.0881 8.31481 11.8583 8.66079 11.7149C9.00677 11.5715 9.38377 11.5193 9.75569 11.5633C10.0001 11.5914 10.2476 11.564 10.4799 11.483C10.7122 11.402 10.9232 11.2697 11.0971 11.0957C11.271 10.9218 11.4034 10.7108 11.4844 10.4785C11.5654 10.2462 11.5928 9.99867 11.5647 9.7543C11.5207 9.38238 11.5729 9.00538 11.7163 8.6594C11.8597 8.31342 12.0895 8.01004 12.3837 7.7783C12.5763 7.62539 12.7319 7.43094 12.8389 7.20948C12.9458 6.98801 13.0014 6.74524 13.0014 6.4993C13.0014 6.25336 12.9458 6.0106 12.8389 5.78913C12.7319 5.56766 12.5763 5.37321 12.3837 5.2203L12.3817 5.2213Z" fill="#0089FF"/>
<path d="M9.39946 5.12739L5.91946 8.60739C5.85816 8.66877 5.78537 8.71746 5.70523 8.75069C5.6251 8.78391 5.53921 8.80101 5.45246 8.80101C5.36572 8.80101 5.27982 8.78391 5.19969 8.75069C5.11956 8.71746 5.04676 8.66877 4.98546 8.60739L3.19246 6.81239C3.06861 6.68853 2.99902 6.52055 2.99902 6.34539C2.99902 6.17023 3.06861 6.00225 3.19246 5.87839C3.31632 5.75454 3.4843 5.68495 3.65946 5.68495C3.83462 5.68495 4.00261 5.75454 4.12646 5.87839L5.45646 7.20839L8.46946 4.19539C8.59332 4.07153 8.7613 4.00195 8.93646 4.00195C9.11162 4.00195 9.2796 4.07153 9.40346 4.19539C9.52732 4.31924 9.5969 4.48723 9.5969 4.66239C9.5969 4.83755 9.52732 5.00553 9.40346 5.12939L9.39946 5.12739Z" fill="white"/>
</svg>
