<svg width="13" height="18" viewBox="0 0 13 18" fill="none" xmlns="http://www.w3.org/2000/svg">
<path d="M13 6.5C13 2.91015 10.0899 0 6.5 0C2.91015 0 0 2.91015 0 6.5V11.5C0 15.0899 2.91015 18 6.5 18C10.0899 18 13 15.0899 13 11.5V6.5Z" fill="black"/>
<path d="M5.25 7.5C5.66421 7.5 6 7.16421 6 6.75C6 6.33579 5.66421 6 5.25 6C4.83579 6 4.5 6.33579 4.5 6.75C4.5 7.16421 4.83579 7.5 5.25 7.5Z" fill="white"/>
<path d="M7.75 7.5C8.16421 7.5 8.5 7.16421 8.5 6.75C8.5 6.33579 8.16421 6 7.75 6C7.33579 6 7 6.33579 7 6.75C7 7.16421 7.33579 7.5 7.75 7.5Z" fill="white"/>
<path d="M7.75 10C8.16421 10 8.5 9.66421 8.5 9.25C8.5 8.83579 8.16421 8.5 7.75 8.5C7.33579 8.5 7 8.83579 7 9.25C7 9.66421 7.33579 10 7.75 10Z" fill="white"/>
<path d="M7.75 12.5C8.16421 12.5 8.5 12.1642 8.5 11.75C8.5 11.3358 8.16421 11 7.75 11C7.33579 11 7 11.3358 7 11.75C7 12.1642 7.33579 12.5 7.75 12.5Z" fill="white"/>
<path d="M5.25 10C5.66421 10 6 9.66421 6 9.25C6 8.83579 5.66421 8.5 5.25 8.5C4.83579 8.5 4.5 8.83579 4.5 9.25C4.5 9.66421 4.83579 10 5.25 10Z" fill="white"/>
<path d="M5.25 12.5C5.66421 12.5 6 12.1642 6 11.75C6 11.3358 5.66421 11 5.25 11C4.83579 11 4.5 11.3358 4.5 11.75C4.5 12.1642 4.83579 12.5 5.25 12.5Z" fill="white"/>
</svg>
