<svg width="16" height="16" viewBox="0 0 16 16" fill="none" xmlns="http://www.w3.org/2000/svg">
<path d="M10.9371 1.69485C10.8745 1.38028 10.4247 1.38028 10.3617 1.6945L10.2496 2.25497C10.2042 2.48227 10.0925 2.69103 9.92862 2.85492C9.76472 3.01882 9.55596 3.13052 9.32866 3.17592L8.76819 3.28802C8.45397 3.351 8.45433 3.80116 8.7689 3.86379L9.32902 3.97553C9.55631 4.02093 9.76507 4.13263 9.92897 4.29653C10.0929 4.46042 10.2046 4.66918 10.25 4.89648L10.3621 5.45695C10.4247 5.77152 10.8745 5.77152 10.9371 5.45695L11.0492 4.89648C11.0946 4.66918 11.2063 4.46042 11.3702 4.29652C11.5341 4.13263 11.7429 4.02093 11.9702 3.97553L12.5306 3.86343C12.8452 3.8008 12.8452 3.351 12.5303 3.28802L11.9702 3.17628C11.7429 3.13087 11.5341 3.01918 11.3702 2.85528C11.2063 2.69138 11.0946 2.48262 11.0492 2.25533L10.9371 1.69485V1.69485Z" fill="black"/>
<path d="M8.19238 1.31055C8.54199 1.0957 8.47949 0.5 8.06934 0.5C3.92676 0.5 0.569336 3.85742 0.569336 8C0.569336 12.1426 3.92676 15.5 8.06934 15.5C10.9961 15.5 13.5322 13.8242 14.7676 11.3789L14.6982 11.4395C14.9082 11.2305 14.8926 10.9082 14.6621 10.7207C14.4512 10.5488 14.1318 10.5508 13.9189 10.7148L13.9443 10.6895C13.1084 11.2031 12.123 11.5 11.0693 11.5C8.03223 11.5 5.56934 9.03711 5.56934 6C5.56934 4.01758 6.61914 2.2793 8.19238 1.31055Z" fill="black"/>
<circle cx="14.056" cy="1.83432" r="0.424166" fill="black"/>
<circle cx="14.9476" cy="5.39487" r="0.424166" fill="black"/>
</svg>
