<svg width="92" height="31" viewBox="0 0 92 31" fill="none" xmlns="http://www.w3.org/2000/svg">
<path d="M76.5 0.5H15.5C7.21573 0.5 0.5 7.21573 0.5 15.5C0.5 23.7843 7.21573 30.5 15.5 30.5H76.5C84.7843 30.5 91.5 23.7843 91.5 15.5C91.5 7.21573 84.7843 0.5 76.5 0.5Z" stroke="white"/>
<path d="M20.5 15.5H48.5" stroke="white" stroke-width="0.8"/>
<path d="M41.29 9.40898L56.118 15.002C56.2113 15.0388 56.2913 15.1029 56.3477 15.1858C56.4041 15.2687 56.4342 15.3667 56.4342 15.467C56.4342 15.5673 56.4041 15.6652 56.3477 15.7481C56.2913 15.8311 56.2113 15.8951 56.118 15.932L41.239 21.593C41.1348 21.63 41.0213 21.6314 40.9162 21.597C40.8111 21.5627 40.7204 21.4944 40.6582 21.403C40.596 21.3115 40.5659 21.2021 40.5726 21.0917C40.5792 20.9813 40.6223 20.8763 40.695 20.793L45.051 16.01C45.1748 15.8729 45.2434 15.6947 45.2434 15.51C45.2434 15.3252 45.1748 15.1471 45.051 15.01L40.745 10.206C40.6718 10.1226 40.6284 10.0172 40.6217 9.90649C40.6149 9.79573 40.6452 9.68588 40.7078 9.59424C40.7703 9.50259 40.8616 9.43435 40.9672 9.40027C41.0727 9.36619 41.1867 9.3682 41.291 9.40598" fill="white"/>
<path d="M14.302 15.4999C12.3284 15.4999 10.4356 14.7159 9.04004 13.3204C7.64449 11.9248 6.86047 10.0321 6.86047 8.05844C6.86047 6.08483 7.64449 4.19206 9.04004 2.79651C10.4356 1.40096 12.3284 0.616943 14.302 0.616943" stroke="white" stroke-width="0.8" stroke-miterlimit="10" stroke-linecap="round"/>
<path d="M14.302 30.3819C12.3284 30.3819 10.4356 29.5979 9.04004 28.2024C7.64449 26.8068 6.86047 24.9141 6.86047 22.9404C6.86047 20.9668 7.64449 19.0741 9.04004 17.6785C10.4356 16.283 12.3284 15.4989 14.302 15.4989" stroke="white" stroke-width="0.8" stroke-miterlimit="10" stroke-linecap="round"/>
<path d="M14.303 15.4999H38.74" stroke="white" stroke-width="0.8" stroke-miterlimit="10" stroke-linecap="round"/>
</svg>
