<svg width="24" height="24" viewBox="0 0 24 24" fill="none" xmlns="http://www.w3.org/2000/svg">
<path d="M11.7144 22.6288C14.6298 22.6288 17.3706 21.4935 19.4321 19.4321C21.4935 17.3706 22.6288 14.6298 22.6288 11.7144C22.6288 8.79905 21.4935 6.05819 19.4321 3.99674C17.3706 1.93529 14.6298 0.8 11.7144 0.8C8.79905 0.8 6.05819 1.93529 3.99674 3.99674C1.9353 6.05819 0.8 8.79905 0.8 11.7144C0.8 14.6298 1.9353 17.3706 3.99674 19.4321C6.0582 21.4935 8.79905 22.6288 11.7144 22.6288ZM11.7144 23.4288C5.24469 23.4288 0 18.1841 0 11.7144C0 5.24468 5.24469 0 11.7144 0C18.1841 0 23.4288 5.24468 23.4288 11.7144C23.4288 18.1841 18.1841 23.4288 11.7144 23.4288Z" fill="#FF90D0"/>
<path d="M3.75879 12C3.76466 13.039 3.97513 14.0666 4.37818 15.0243C4.78123 15.9819 5.36898 16.8508 6.10785 17.5813C6.84672 18.3117 7.72225 18.8895 8.68443 19.2816C9.64661 19.6737 10.6766 19.8724 11.7156 19.8664C12.7546 19.8724 13.7846 19.6737 14.7467 19.2816C15.7089 18.8895 16.5845 18.3117 17.3233 17.5813C18.0622 16.8508 18.6499 15.9819 19.053 15.0243C19.4561 14.0666 19.6665 13.039 19.6724 12" fill="#FF90D0"/>
<path d="M3.75879 12C3.76466 13.039 3.97513 14.0666 4.37818 15.0243C4.78123 15.9819 5.36898 16.8508 6.10785 17.5813C6.84672 18.3117 7.72225 18.8895 8.68443 19.2816C9.64661 19.6737 10.6766 19.8724 11.7156 19.8664C12.7546 19.8724 13.7846 19.6737 14.7467 19.2816C15.7089 18.8895 16.5845 18.3117 17.3233 17.5813C18.0622 16.8508 18.6499 15.9819 19.053 15.0243C19.4561 14.0666 19.6665 13.039 19.6724 12" stroke="#FF90D0" stroke-linecap="round"/>
<path d="M3.96777 12H19.5254" stroke="#FF90D0" stroke-linecap="round"/>
<path d="M8.56244 7.08857C8.39258 6.82515 8.15779 6.60988 7.88065 6.46347C7.60352 6.31706 7.29336 6.24443 6.98004 6.25257C6.6669 6.24487 6.35702 6.3177 6.08009 6.46408C5.80316 6.61046 5.56845 6.82549 5.39844 7.08857" stroke="#FF90D0" stroke-linecap="round"/>
<path d="M14.9941 7.08855C15.1639 6.82525 15.3986 6.61005 15.6756 6.46365C15.9526 6.31724 16.2625 6.24454 16.5757 6.25255C16.889 6.24472 17.1991 6.31748 17.4761 6.46386C17.7532 6.61025 17.9881 6.82535 18.1581 7.08855" stroke="#FF90D0" stroke-linecap="round"/>
</svg>
