<svg width="24" height="24" viewBox="0 0 24 24" fill="none" xmlns="http://www.w3.org/2000/svg">
<path d="M11.7144 22.6288C14.6298 22.6288 17.3706 21.4935 19.4321 19.4321C21.4935 17.3706 22.6288 14.6298 22.6288 11.7144C22.6288 8.79906 21.4935 6.0582 19.4321 3.99674C17.3706 1.9353 14.6298 0.8 11.7144 0.8C8.79906 0.8 6.0582 1.9353 3.99674 3.99674C1.9353 6.0582 0.8 8.79906 0.8 11.7144C0.8 14.6298 1.9353 17.3706 3.99674 19.4321C6.0582 21.4935 8.79906 22.6288 11.7144 22.6288ZM11.7144 23.4288C5.24469 23.4288 0 18.1841 0 11.7144C0 5.24469 5.24469 0 11.7144 0C18.1841 0 23.4288 5.24469 23.4288 11.7144C23.4288 18.1841 18.1841 23.4288 11.7144 23.4288Z" fill="#FF90D0"/>
<path d="M9.20117 17.7656H15.4868" stroke="#FF90D0" stroke-linecap="round"/>
<path d="M18.3104 8.04883H16.5576" stroke="#FF90D0" stroke-linecap="round"/>
<path d="M5.9834 8.05859H7.7362" stroke="#FF90D0" stroke-linecap="round"/>
</svg>
