<svg width="30" height="31" viewBox="0 0 30 31" fill="none" xmlns="http://www.w3.org/2000/svg">
<circle cx="15" cy="15.3281" r="15" fill="#F4F7FF"/>
<path d="M19.9535 8.71713C19.914 8.67332 19.8657 8.63831 19.8117 8.61436C19.7578 8.59041 19.6995 8.57807 19.6405 8.57813H10.3585C10.2997 8.57854 10.2417 8.5912 10.1881 8.61528C10.1345 8.63936 10.0865 8.67434 10.0472 8.71799C10.0079 8.76165 9.97807 8.81301 9.9597 8.86882C9.94132 8.92463 9.93477 8.98365 9.94047 9.04213L11.2045 21.6981C11.2149 21.8023 11.2636 21.8988 11.3412 21.9691C11.4189 22.0393 11.5198 22.0781 11.6245 22.0781H18.3745C18.479 22.0781 18.5798 22.0392 18.6573 21.969C18.7347 21.8987 18.7833 21.8022 18.7935 21.6981L20.0595 9.04213C20.0658 8.98354 20.0597 8.92426 20.0414 8.86823C20.0231 8.8122 19.9932 8.7607 19.9535 8.71713V8.71713ZM18.8305 12.8631C18.2521 13.1052 17.6217 13.1963 16.9985 13.1279C16.3752 13.0595 15.7796 12.8338 15.2675 12.4721C14.6715 12.0326 13.9756 11.7483 13.2424 11.6448C12.5092 11.5413 11.7618 11.6218 11.0675 11.8791L10.8255 9.42213H19.1735L18.8305 12.8631Z" fill="#0044FF"/>
</svg>
